<?xml version="1.0" encoding="UTF-8" standalone="no"?>
<!-- Created with Inkscape (http://www.inkscape.org/) -->

<svg
   width="24.063486"
   height="24.440493"
   viewBox="0 0 157.91663 226.83832"
   version="1.1"
   id="svg1"
   inkscape:version="1.3.2 (091e20ef0f, 2023-11-25)"
   sodipodi:docname="retune.svg"
   xmlns:inkscape="http://www.inkscape.org/namespaces/inkscape"
   xmlns:sodipodi="http://sodipodi.sourceforge.net/DTD/sodipodi-0.dtd"
   xmlns="http://www.w3.org/2000/svg"
   xmlns:svg="http://www.w3.org/2000/svg">
  <sodipodi:namedview
     id="namedview1"
     pagecolor="currentColor"
     bordercolor="currentColor"
     borderopacity="0.25"
     inkscape:showpageshadow="2"
     inkscape:pageopacity="0.0"
     inkscape:pagecheckerboard="0"
     inkscape:deskcolor="currentColor"
     inkscape:zoom="13.8125"
     inkscape:cx="29.502262"
     inkscape:cy="22.660633"
     inkscape:window-width="2048"
     inkscape:window-height="1086"
     inkscape:window-x="0"
     inkscape:window-y="0"
     inkscape:window-maximized="1"
     inkscape:current-layer="layer1" />
  <defs
     id="defs1" />
  <g
     inkscape:label="Layer 1"
     inkscape:groupmode="layer"
     id="layer1"
     transform="translate(10.788701)">
    <path
       d="M 81.167236,35.547393 C 88.991346,26.154709 94.160966,13.021579 92.722386,0 81.519926,0.484086 68.015696,7.471421 59.941024,16.873576 52.701649,25.189342 46.446092,38.572934 48.125978,51.344051 60.544308,52.308717 73.324586,44.958668 81.157946,35.556513"
       id="path1"
       style="fill:currentColor;stroke-width:9.28124;"
       sodipodi:nodetypes="ccccc" />
    <path
       d="m 46.07745,77.431764 h 14.935405 c 2.975381,0 5.834121,0.87346 8.284481,2.50813 l 44.806144,29.870946 c 8.86791,5.89252 8.86791,18.96076 0,24.85329 l -44.806144,29.87095 c -2.45025,1.63467 -5.30907,2.50813 -8.284481,2.50813 H 46.07745 Z m 0,0"
       id="path7"
       style="fill:currentColor;stroke-width:14.9354" />
    <path
       d="m 112.8237,56.077577 c 31.50608,18.670307 45.15873,57.235873 32.38126,91.542533 -12.77747,34.36489 -48.309324,54.61058 -84.366306,48.13434 -36.056982,-6.47623 -62.253715,-37.86574 -62.253715,-74.50619 0,-8.22631 -6.709616,-14.93618 -14.936213,-14.93618 -8.284932,0 -14.936212,6.70987 -14.936212,14.93618 0,51.11008 36.523705,94.86835 86.816762,103.912 50.293064,9.0433 99.827644,-19.19544 117.681114,-67.09651 17.79509,-47.90072 -1.2253,-101.636088 -45.2171,-127.657848 -7.0597,-4.20068 -16.21977,-1.866189 -20.42059,5.250936 -4.20082,7.059597 -1.86689,16.219709 5.251,20.420739 z m 0,0"
       id="path8"
       style="fill:currentColor;stroke-width:14.9362" />
    <path
       d="M 7.394964,136.41806 H -34.55479 c -3.150772,0 -6.06785,-1.63467 -7.643131,-4.31749 -1.633617,-2.74316 -1.75043,-6.06792 -0.235028,-8.86861 L -21.37055,83.732954 c 1.400343,-2.62389 4.142448,-4.25926 7.118037,-4.31749 2.975379,0 5.717765,1.57503 7.176374,4.20068 l 22.112621,39.790866 c 1.516805,2.68352 1.516805,6.00969 -0.11576,8.69356 -1.575386,2.68352 -4.434163,4.31749 -7.526459,4.31749 z m 0,0"
       id="path9"
       style="fill:currentColor;stroke-width:14.9362" />
    <path
       d="m 10.662268,83.266054 -31.214361,-24.32956 c -2.450601,-1.925823 -3.734062,-5.017663 -3.325465,-8.168436 0.350788,-3.090437 2.333789,-5.776065 5.251042,-7.059596 L 16.847001,28.072113 c 2.800687,-1.224248 6.067816,-0.873461 8.518311,0.933094 2.450601,1.810063 3.792398,4.842621 3.442277,7.876581 l -4.667577,40.724666 c -0.350788,2.97468 -2.333789,5.60102 -5.075964,6.76774 -2.800687,1.16812 -6.009515,0.7577 -8.401639,-1.10849 z m 0,0"
       id="path10"
       style="fill:currentColor;stroke-width:14.9362" />
  </g>
</svg>